<?xml version="1.0" encoding="UTF-8"?>
<svg width="507px" height="499px" viewBox="0 0 507 499" version="1.1" xmlns="http://www.w3.org/2000/svg" xmlns:xlink="http://www.w3.org/1999/xlink">
    <title>Group</title>
    <g id="Page-1" stroke="none" stroke-width="1" fill="none" fill-rule="evenodd">
        <g id="favicon" transform="translate(-3.000000, -6.000000)" fill="#000000" fill-rule="nonzero">
            <g id="Shape" transform="translate(3.360000, 6.360000)">
                <path d="M253.14,0.64 C113.675833,0.64 0.64,111.885167 0.64,249.14 C0.64,386.394833 113.675833,497.64 253.14,497.64 C392.604167,497.64 505.64,386.394833 505.64,249.14 C505.64,111.885167 392.604167,0.64 253.14,0.64 M267.64,165.64 L239.64,165.64 C231.912,165.64 225.64,159.48 225.64,151.89 L225.64,124.39 C225.64,116.8 231.912,110.64 239.64,110.64 L267.64,110.64 C275.368,110.64 281.64,116.8 281.64,124.39 L281.64,151.89 C281.64,159.48 275.368,165.64 267.64,165.64 M267.64,386.64 L239.64,386.64 C231.912,386.64 225.64,380.48 225.64,372.89 L225.64,235.39 C225.64,227.8 231.912,221.64 239.64,221.64 L267.64,221.64 C275.368,221.64 281.64,227.8 281.64,235.39 L281.64,372.89 C281.64,380.48 275.368,386.64 267.64,386.64"></path>
            </g>
        </g>
    </g>
</svg>