<?xml version="1.0" encoding="utf-8"?>
<!-- Generator: Adobe Illustrator 24.0.0, SVG Export Plug-In . SVG Version: 6.00 Build 0)  -->
<svg version="1.1" id="Livello_1" xmlns="http://www.w3.org/2000/svg" xmlns:xlink="http://www.w3.org/1999/xlink" x="0px" y="0px"
	 viewBox="0 0 35.3 24.2" style="enable-background:new 0 0 35.3 24.2;" xml:space="preserve">
<g>
	<path d="M33.9,4H9.8C9.1,4,8.5,3.4,8.5,2.7s0.6-1.3,1.3-1.3h24.2c0.7,0,1.3,0.6,1.3,1.3S34.7,4,33.9,4z"/>
</g>
<g>
	<path d="M33.9,13.5H9.8c-0.7,0-1.3-0.6-1.3-1.3s0.6-1.3,1.3-1.3h24.2c0.7,0,1.3,0.6,1.3,1.3S34.7,13.5,33.9,13.5z"/>
</g>
<g>
	<path d="M33.9,22.9H9.8c-0.7,0-1.3-0.6-1.3-1.3s0.6-1.3,1.3-1.3h24.2c0.7,0,1.3,0.6,1.3,1.3S34.7,22.9,33.9,22.9z"/>
</g>
<circle cx="2.7" cy="2.7" r="2.7"/>
<circle cx="2.7" cy="12.1" r="2.7"/>
<circle cx="2.7" cy="21.6" r="2.7"/>
</svg>
