<?xml version="1.0" encoding="utf-8"?>
<!-- Generator: Adobe Illustrator 24.0.0, SVG Export Plug-In . SVG Version: 6.00 Build 0)  -->
<svg version="1.1" id="Livello_1" xmlns="http://www.w3.org/2000/svg" xmlns:xlink="http://www.w3.org/1999/xlink" x="0px" y="0px"
	 viewBox="0 0 29.6 29.6" style="enable-background:new 0 0 29.6 29.6;" xml:space="preserve">
<g>
	<path d="M27.8,29.6h-26c-1,0-1.8-0.8-1.8-1.8v-26C0,0.8,0.8,0,1.8,0h11.5c0.7,0,1.3,0.6,1.3,1.3s-0.6,1.3-1.3,1.3H2.7v24.2h24.2
		V16.3c0-0.7,0.6-1.3,1.3-1.3c0.7,0,1.3,0.6,1.3,1.3v11.5C29.6,28.8,28.8,29.6,27.8,29.6z"/>
</g>
<path d="M29.2,0.4C28.9,0.1,28.5,0,28.1,0c-0.1,0-0.2,0-0.3,0h-7.7c-0.7,0-1.3,0.6-1.3,1.3s0.6,1.3,1.3,1.3H25L13.9,13.9
	c-0.5,0.5-0.5,1.4,0,1.9c0.3,0.3,0.6,0.4,1,0.4c0.3,0,0.7-0.1,1-0.4L26.9,4.6v4.9c0,0.7,0.6,1.3,1.3,1.3c0.7,0,1.3-0.6,1.3-1.3V1.9
	c0-0.1,0-0.2,0-0.3C29.6,1.1,29.5,0.7,29.2,0.4z"/>
</svg>
