<svg xmlns="http://www.w3.org/2000/svg" xmlns:xlink="http://www.w3.org/1999/xlink" width="100" height="100" viewBox="0 0 100 100"><rect width="100%" height="100%" fill="none"></rect><g transform="translate(50 50) scale(0.69 0.69) rotate(0) translate(-50 -50)" style="fill:#000000"><svg fill="#000000" xmlns="http://www.w3.org/2000/svg" xmlns:xlink="http://www.w3.org/1999/xlink" version="1.1" x="0px" y="0px" viewBox="0 0 1024 1024" style="enable-background:new 0 0 1024 1024;" xml:space="preserve"><g><path d="M248.9,742.6v129.3c0,5.7-4.7,10.4-10.4,10.4H109.2c-5.7,0-10.4-4.7-10.4-10.4V742.6   c0-5.7,4.7-10.4,10.4-10.4h129.3C244.2,732.3,248.9,736.9,248.9,742.6z"></path><path d="M925.2,172.5v88.4c0,5.7-4.7,10.4-10.4,10.4h-556c-5.7,0-10.4-4.6-10.4-10.4v-88.4   c0-5.7,4.7-10.4,10.4-10.4h556C920.5,162.1,925.2,166.8,925.2,172.5z"></path><path d="M925.2,467.8v88.4c0,5.7-4.7,10.4-10.4,10.4h-556c-5.7,0-10.4-4.7-10.4-10.4v-88.4   c0-5.7,4.7-10.4,10.4-10.4h556C920.5,457.4,925.2,462.1,925.2,467.8z"></path><path d="M925.2,763.1v88.4c0,5.7-4.7,10.4-10.4,10.4h-556c-5.7,0-10.4-4.6-10.4-10.4v-88.4   c0-5.7,4.7-10.4,10.4-10.4h556C920.5,752.7,925.2,757.4,925.2,763.1z"></path><path d="M248.9,447.4v129.3c0,5.7-4.7,10.4-10.4,10.4H109.2c-5.7,0-10.4-4.7-10.4-10.4V447.4   c0-5.7,4.7-10.4,10.4-10.4h129.3C244.2,437,248.9,441.6,248.9,447.4z"></path><path d="M248.9,152.1v129.3c0,5.7-4.7,10.4-10.4,10.4H109.2c-5.7,0-10.4-4.7-10.4-10.4V152.1   c0-5.7,4.7-10.4,10.4-10.4h129.3C244.2,141.7,248.9,146.4,248.9,152.1z"></path></g></svg></g></svg>