<?xml version="1.0" encoding="utf-8"?>
<!-- Generator: Adobe Illustrator 24.0.0, SVG Export Plug-In . SVG Version: 6.00 Build 0)  -->
<svg version="1.1" id="Livello_1" xmlns="http://www.w3.org/2000/svg" xmlns:xlink="http://www.w3.org/1999/xlink" x="0px" y="0px"
	 viewBox="0 0 29.6 29.6" style="enable-background:new 0 0 29.6 29.6;" xml:space="preserve">
<path d="M14.8,0C6.6,0,0,6.6,0,14.8s6.6,14.8,14.8,14.8c8.2,0,14.8-6.6,14.8-14.8S23,0,14.8,0z M19.8,16.2h-3.6v3.6
	c0,0.7-0.6,1.3-1.3,1.3c-0.7,0-1.3-0.6-1.3-1.3v-3.6H9.8c-0.7,0-1.3-0.6-1.3-1.3c0-0.7,0.6-1.3,1.3-1.3h3.6V9.8
	c0-0.7,0.6-1.3,1.3-1.3c0.7,0,1.3,0.6,1.3,1.3v3.6h3.6c0.7,0,1.3,0.6,1.3,1.3C21.1,15.6,20.5,16.2,19.8,16.2z"/>
</svg>
