<?xml version="1.0" encoding="utf-8"?>
<!-- Generator: Adobe Illustrator 24.0.0, SVG Export Plug-In . SVG Version: 6.00 Build 0)  -->
<svg version="1.1" id="Livello_1" xmlns="http://www.w3.org/2000/svg" xmlns:xlink="http://www.w3.org/1999/xlink" x="0px" y="0px"
	 viewBox="0 0 28.4 28.4" style="enable-background:new 0 0 28.4 28.4;" xml:space="preserve">
<g>
	<path d="M27.1,28.4c-0.7,0-1.3-0.6-1.3-1.3c0-13.4-10.9-24.4-24.4-24.4C0.6,2.7,0,2.1,0,1.3S0.6,0,1.3,0
		c14.9,0,27.1,12.1,27.1,27.1C28.4,27.8,27.8,28.4,27.1,28.4z"/>
</g>
<g>
	<path d="M16.2,28.4c-0.7,0-1.3-0.6-1.3-1.3c0-7.4-6-13.5-13.5-13.5C0.6,13.6,0,13,0,12.2s0.6-1.3,1.3-1.3c8.9,0,16.2,7.3,16.2,16.2
		C17.5,27.8,16.9,28.4,16.2,28.4z"/>
</g>
<g>
	<g>
		<path d="M4.5,21.6c1.2,0,2.2,1,2.2,2.2c0,1.2-1,2.2-2.2,2.2c-1.2,0-2.2-1-2.2-2.2C2.3,22.6,3.3,21.6,4.5,21.6 M4.5,19.4
			c-2.5,0-4.5,2-4.5,4.5s2,4.5,4.5,4.5s4.5-2,4.5-4.5S7,19.4,4.5,19.4L4.5,19.4z"/>
	</g>
</g>
</svg>
