<svg xmlns="http://www.w3.org/2000/svg" xmlns:xlink="http://www.w3.org/1999/xlink" width="100" height="100" viewBox="0 0 100 100"><rect width="100%" height="100%" fill="none"></rect><g transform="translate(50 50) scale(0.69 0.69) rotate(90) translate(-50 -50)" ><svg xmlns:dc="http://purl.org/dc/elements/1.1/" xmlns:cc="http://creativecommons.org/ns#" xmlns:rdf="http://www.w3.org/1999/02/22-rdf-syntax-ns#" xmlns:svg="http://www.w3.org/2000/svg" xmlns="http://www.w3.org/2000/svg" xmlns:sodipodi="http://sodipodi.sourceforge.net/DTD/sodipodi-0.dtd" xmlns:inkscape="http://www.inkscape.org/namespaces/inkscape" viewBox="0 0 511.99998 511.99998" version="1.1" x="0px" y="0px"><g transform="translate(-91.214475,-152.15558)"><path style="opacity:1;fill:#d9dadb;fill-opacity:1;fill-rule:nonzero;stroke:none;stroke-width:10;stroke-linecap:butt;stroke-linejoin:round;stroke-miterlimit:4;stroke-dasharray:none;stroke-dashoffset:0;stroke-opacity:1" d="M 100 156 C 44.6 156 9.4739031e-015 200.6 0 256 C 0 311.4 44.6 356 100 356 L 412 356 C 467.4 356 512 311.4 512 256 C 512 200.6 467.4 156 412 156 L 100 156 z M 98.757812 171.1875 L 413.24219 171.1875 C 460.22847 171.1875 498.05664 209.01372 498.05664 256 C 498.05664 302.98628 460.22847 340.8125 413.24219 340.8125 L 98.757812 340.8125 C 51.771533 340.8125 13.943359 302.98628 13.943359 256 C 13.943359 209.01372 51.771533 171.1875 98.757812 171.1875 z M 255.99805 186.92578 C 217.8495 186.926 186.92406 217.85145 186.92383 256 C 186.92406 294.14855 217.8495 325.074 255.99805 325.07422 C 294.14736 325.07507 325.07399 294.14931 325.07422 256 C 325.07399 217.85069 294.14736 186.92493 255.99805 186.92578 z " transform="translate(91.214475,152.15558)"></path></g></svg></g></svg>