<?xml version="1.0" encoding="utf-8"?>
<!-- Generator: Adobe Illustrator 24.0.0, SVG Export Plug-In . SVG Version: 6.00 Build 0)  -->
<svg version="1.1" id="Livello_1" xmlns="http://www.w3.org/2000/svg" xmlns:xlink="http://www.w3.org/1999/xlink" x="0px" y="0px"
	 viewBox="0 0 29.6 29.6" style="enable-background:new 0 0 29.6 29.6;" xml:space="preserve">
<path d="M27.8,0h-26C0.8,0,0,0.8,0,1.8v26c0,1,0.8,1.8,1.8,1.8h19.6c0.5,0,0.9-0.2,1.3-0.5l6.5-6.5c0.3-0.3,0.5-0.8,0.5-1.3V1.8
	C29.6,0.8,28.8,0,27.8,0z M2.7,2.7h24.2v16.7c0,0,0,0,0,0h-5.4c-1.2,0-2.2,1-2.2,2.2v5.4c0,0,0,0,0,0H2.7V2.7z M21.5,26.9v-5.4h5.4
	L21.5,26.9z"/>
<g>
	<path d="M22.4,14.8H7.2c-0.7,0-1.3-0.6-1.3-1.3c0-0.7,0.6-1.3,1.3-1.3h15.2c0.7,0,1.3,0.6,1.3,1.3C23.7,14.2,23.1,14.8,22.4,14.8z"
		/>
</g>
<g>
	<path d="M22.4,9.4H7.2c-0.7,0-1.3-0.6-1.3-1.3c0-0.7,0.6-1.3,1.3-1.3h15.2c0.7,0,1.3,0.6,1.3,1.3C23.7,8.8,23.1,9.4,22.4,9.4z"/>
</g>
</svg>
