<svg xmlns="http://www.w3.org/2000/svg" xmlns:xlink="http://www.w3.org/1999/xlink" width="100" height="100" viewBox="0 0 100 100"><rect width="100%" height="100%" fill="none"></rect><g transform="translate(50 50) scale(0.69 0.69) rotate(0) translate(-50 -50)" style="fill:#000000"><svg fill="#000000" xmlns="http://www.w3.org/2000/svg" viewBox="0 0 24 24" x="0px" y="0px"><title>_</title><path d="M20,15V5a1,1,0,0,0-1-1H5A1,1,0,0,0,4,5V19a1,1,0,0,0,1,1H15Zm-5,0h3.58582L15,18.58582Zm4-1H14v5H5V5H19ZM16,9H8V8h8Zm0,3H8V11h8Z"></path></svg></g></svg>